PathFileType	4	(X/Y/Z)	/Users/itak/Documents/Research/Walk-IL/dataset/trc/00030_00004.trc
DataRate	CameraRate	NumFrames	NumMarkers	Units	OrigDataRate	OrigDataStartFrame	OrigNumFrames
100.000000	100.000000	4	53	mm	100.000000	95	764
Frame#	Time	RPSI			LPSI			L3			STRN			T10			C7			CLAV			RBAK			LBAK			LSHO			LUPA			LAEL			LAOL			LWTS			LWPS			LFRA			LIFD			LHPS			LHTS			RSHO			RUPA			RAEL			RAOL			RWTS			RWPS			RFRA			RIFD			RHTS			RHPS			RBHD			LFHD			RFHD			LBHD			LHIP			RHIP			RASI			LASI			LKNE			LTHI			LANK			LTIP			LTOE			LMT1			LMT5			LHEE			RKNE			RTHI			RANK			RTIP			RTOE			RMT1			RMT5			RHEE			
		X1	Y1	Z1	X2	Y2	Z2	X3	Y3	Z3	X4	Y4	Z4	X5	Y5	Z5	X6	Y6	Z6	X7	Y7	Z7	X8	Y8	Z8	X9	Y9	Z9	X10	Y10	Z10	X11	Y11	Z11	X12	Y12	Z12	X13	Y13	Z13	X14	Y14	Z14	X15	Y15	Z15	X16	Y16	Z16	X17	Y17	Z17	X18	Y18	Z18	X19	Y19	Z19	X20	Y20	Z20	X21	Y21	Z21	X22	Y22	Z22	X23	Y23	Z23	X24	Y24	Z24	X25	Y25	Z25	X26	Y26	Z26	X27	Y27	Z27	X28	Y28	Z28	X29	Y29	Z29	X30	Y30	Z30	X31	Y31	Z31	X32	Y32	Z32	X33	Y33	Z33	X34	Y34	Z34	X35	Y35	Z35	X36	Y36	Z36	X37	Y37	Z37	X38	Y38	Z38	X39	Y39	Z39	X40	Y40	Z40	X41	Y41	Z41	X42	Y42	Z42	X43	Y43	Z43	X44	Y44	Z44	X45	Y45	Z45	X46	Y46	Z46	X47	Y47	Z47	X48	Y48	Z48	X49	Y49	Z49	X50	Y50	Z50	X51	Y51	Z51	X52	Y52	Z52	X53	Y53	Z53	

96	0.9500000000000001	407.9372253417969	1069.1982421875	897.7765502929688	430.0145568847656	1058.813232421875	1060.994140625	426.8818664550781	1121.20654296875	989.197509765625	214.4681854248047	1318.404174804688	1007.962768554688	460.8878479003906	1264.140502929688	996.521728515625	418.7497253417969	1532.967163085938	1017.778442382812	258.2414245605469	1443.816528320312	1013.840393066406	466.2066955566406	1396.435913085938	932.3580932617188	438.9171447753906	1488.896362304688	1113.072875976562	339.7192993164062	1496.76220703125	1190.169555664062	372.4156188964844	1369.493530273438	1264.77490234375	373.6247863769531	1151.762329101562	1286.556640625	424.7587280273438	1140.897827148438	1194.475341796875	283.4626770019531	898.8359985351562	1229.142944335938	361.4007263183594	884.5942993164062	1269.903686523438	360.3940124511719	1035.51416015625	1291.860717773438	260.1278076171875	713.64453125	1205.754760742188	329.0831298828125	794.1859741210938	1267.347412109375	263.9252624511719	804.2787475585938	1239.55712890625	338.852294921875	1523.40869140625	844.37841796875	350.6849365234375	1455.844116210938	771.2540283203125	387.1507873535156	1188.38037109375	736.39208984375	388.13671875	1158.44873046875	831.845947265625	251.2664794921875	930.533203125	761.8005981445312	313.9655456542969	915.9949340820312	696.2617797851562	373.0297546386719	1112.397338867188	718.6381225585938	232.1898040771484	744.2470703125	775.1740112304688	214.8130340576172	823.1398315429688	746.5200805664062	270.6106567382812	816.1035766601562	695.984375	354.0463562011719	1719.420776367188	1089.392578125	204.2823791503906	1728.50830078125	930.6889038085938	184.2251434326172	1733.002319335938	1027.088500976562	377.311279296875	1710.113037109375	947.377685546875	342.28076171875	958.6519775390625	1177.562255859375	282.3065185546875	957.0578002929688	809.05126953125	188.8139495849609	992.0625610351562	894.309326171875	219.749755859375	1006.536499023438	1128.915283203125	291.9689331054688	518.164794921875	1125.715698242188	316.8894958496094	652.1986694335938	1163.336791992188	413.4932250976562	38.90815353393555	1114.609741210938	380.0447998046875	284.0716247558594	1137.010131835938	190.8186340332031	41.63848114013672	1063.355834960938	248.5621795654297	48.95261764526367	1042.97705078125	291.3627014160156	39.7149543762207	1141.599731445312	479.9415893554688	45.90576171875	1057.47509765625	271.7403869628906	520.5477294921875	858.5406494140625	260.051025390625	789.8543701171875	812.3023681640625	417.8297119140625	43.53580474853516	872.891357421875	301.9195556640625	395.1033630371094	856.5537719726562	186.2010650634766	43.94146347045898	916.6600952148438	250.8733215332031	45.29927444458008	946.7019653320312	269.1612548828125	43.70430374145508	852.6644897460938	473.6803283691406	43.34928894042969	917.7418212890625	
97	0.96	407.7430114746094	1068.862060546875	897.926025390625	429.9726867675781	1058.561889648438	1061.04443359375	426.7168884277344	1121.22119140625	989.2734375	213.7493286132812	1318.230346679688	1008.134521484375	460.3225708007812	1264.225708007812	996.6452026367188	417.7227783203125	1532.937133789062	1018.048278808594	257.4996032714844	1443.645874023438	1014.044982910156	465.468017578125	1396.53173828125	932.5880126953125	437.8913879394531	1488.911865234375	1113.349243164062	338.6120910644531	1496.692749023438	1190.353515625	371.4539184570312	1369.52685546875	1265.050903320312	372.9571838378906	1151.780029296875	1286.87255859375	424.2043762207031	1140.979248046875	1194.83740234375	283.1520080566406	898.6995849609375	1229.338623046875	361.0447998046875	884.5579833984375	1270.175415039062	359.8572082519531	1035.494384765625	1292.153442382812	260.0692443847656	713.4619750976562	1205.816284179688	328.8746643066406	794.1425170898438	1267.5751953125	263.70947265625	804.104736328125	1239.703491210938	337.9158630371094	1523.35498046875	844.6250610351562	349.9221496582031	1455.853393554688	771.4999389648438	386.8122863769531	1188.533203125	736.5413208007812	387.8653564453125	1158.52783203125	831.976806640625	251.0791473388672	930.54052734375	761.7699584960938	313.9124145507812	916.0465698242188	696.319091796875	372.8115539550781	1112.490356445312	718.7505493164062	232.2003936767578	744.2559204101562	775.2073974609375	214.7790985107422	823.1154174804688	746.56787109375	270.6239624023438	816.1322631835938	696.0349731445312	352.3940124511719	1719.124267578125	1089.9384765625	203.5967102050781	1728.276489257812	930.3411865234375	182.9828796386719	1732.697631835938	1026.638061523438	376.5378723144531	1709.945434570312	948.0453491210938	342.344482421875	958.5540771484375	1177.723510742188	282.08984375	956.717041015625	809.1975708007812	188.8217468261719	991.9072265625	894.67236328125	219.6959228515625	1006.486999511719	1129.225463867188	289.0387573242188	518.0921020507812	1125.625732421875	314.7265319824219	652.064697265625	1163.339599609375	413.5433959960938	38.97331237792969	1114.577880859375	378.1168212890625	283.7699279785156	1136.899536132812	191.0319213867188	41.9415283203125	1062.510620117188	248.9034118652344	48.99429321289062	1042.284301757812	291.3375244140625	40.16331481933594	1141.01806640625	480.1104736328125	45.82430648803711	1057.60009765625	267.5963745117188	519.9592895507812	859.1344604492188	258.2685241699219	789.5910034179688	813.0591430664062	417.7622375488281	43.66062545776367	872.9363403320312	298.1766357421875	394.1473693847656	856.9673461914062	186.1965026855469	44.02690887451172	916.7542114257812	250.9249420166016	45.23188400268555	946.80078125	269.181640625	43.84466552734375	852.7703857421875	473.6476745605469	43.2825813293457	917.7749633789062	
98	0.97	407.50732421875	1068.396728515625	898.0446166992188	429.8723449707031	1058.19921875	1061.065673828125	426.5218200683594	1121.15576171875	989.33447265625	212.9341125488281	1317.976196289062	1008.281127929688	459.7041320800781	1264.256225585938	996.7651977539062	416.5999755859375	1532.842895507812	1018.305969238281	256.7454223632812	1443.3662109375	1014.253356933594	464.6434631347656	1396.575439453125	932.8036499023438	436.764892578125	1488.863159179688	1113.609008789062	337.4051513671875	1496.555541992188	1190.530029296875	370.4123229980469	1369.510986328125	1265.328247070312	372.2719421386719	1151.746704101562	1287.226440429688	423.6506652832031	1141.0146484375	1195.23876953125	282.8189086914062	898.5277709960938	1229.5732421875	360.6506042480469	884.4737548828125	1270.482788085938	359.3054809570312	1035.423583984375	1292.482055664062	259.9722290039062	713.2328491210938	1205.910278320312	328.6482849121094	794.0589599609375	1267.829467773438	263.4082641601562	803.8867797851562	1239.8291015625	336.8734130859375	1523.222045898438	844.8583984375	349.0736694335938	1455.79736328125	771.7318115234375	386.4585571289062	1188.64013671875	736.6499633789062	387.6061401367188	1158.562377929688	832.0592041015625	250.8971099853516	930.5118408203125	761.7509765625	313.83349609375	916.0452880859375	696.3516235351562	372.5914306640625	1112.531982421875	718.8174438476562	232.1780853271484	744.2255859375	775.2562866210938	214.7099761962891	823.0413818359375	746.6290893554688	270.5997009277344	816.1209716796875	696.0840454101562	350.6550598144531	1718.725219726562	1090.46630859375	202.8453216552734	1727.972412109375	929.9676513671875	181.6619720458984	1732.324096679688	1026.143432617188	375.6903686523438	1709.675048828125	948.7042846679688	342.3551330566406	958.3847045898438	1177.873046875	281.7950439453125	956.2501831054688	809.3199462890625	188.7977600097656	991.6996459960938	895.0354614257812	219.5967712402344	1006.384460449219	1129.526489257812	286.197265625	517.931884765625	1125.559204101562	312.6333923339844	651.8968505859375	1163.359619140625	413.575927734375	39.03982162475586	1114.5341796875	376.267822265625	283.464111328125	1136.79248046875	191.2464752197266	42.26013946533203	1061.605346679688	249.2364349365234	49.03603363037109	1041.538696289062	291.2864685058594	40.60565185546875	1140.401611328125	480.2276611328125	45.69322967529297	1057.727905273438	263.2121276855469	519.2723999023438	859.724609375	256.4461669921875	789.2344970703125	813.8568725585938	417.6746215820312	43.80734252929688	872.9913330078125	294.2911071777344	393.116943359375	857.3584594726562	186.1822052001953	44.06847763061523	916.8428955078125	250.9438018798828	45.14719772338867	946.8995361328125	269.1662902832031	43.93714141845703	852.8706665039062	473.5989379882812	43.24009323120117	917.818359375	
99	0.98	407.2267150878906	1067.797119140625	898.12548828125	429.6955261230469	1057.721557617188	1061.057495117188	426.2835693359375	1120.999145507812	989.3782958984375	212.0147247314453	1317.628662109375	1008.397827148438	459.0267333984375	1264.21630859375	996.8822631835938	415.3793334960938	1532.675415039062	1018.547180175781	255.9624938964844	1442.963256835938	1014.455261230469	463.7277221679688	1396.552734375	933.0053100585938	435.5357055664062	1488.7392578125	1113.849609375	336.0965270996094	1496.3349609375	1190.695556640625	369.2910766601562	1369.425415039062	1265.6025390625	371.57177734375	1151.643676757812	1287.619506835938	423.0935974121094	1140.981689453125	1195.680908203125	282.4547424316406	898.3086547851562	1229.846435546875	360.2083129882812	884.32568359375	1270.8271484375	358.7308044433594	1035.283935546875	1292.8486328125	259.823974609375	712.9468994140625	1206.044067382812	328.3798828125	793.914794921875	1268.108764648438	263.0169982910156	803.6179809570312	1239.941528320312	335.7327575683594	1522.992553710938	845.0717163085938	348.1465759277344	1455.65234375	771.9426879882812	386.1041870117188	1188.675415039062	736.7101440429688	387.3499450683594	1158.530151367188	832.0894165039062	250.7320404052734	930.4298706054688	761.7382202148438	313.7276306152344	915.9705200195312	696.35205078125	372.373291015625	1112.49951171875	718.83203125	232.1167297363281	744.1316528320312	775.3106689453125	214.5930328369141	822.8935546875	746.6969604492188	270.5309143066406	816.050048828125	696.120849609375	348.82568359375	1718.216430664062	1090.969360351562	202.0249176025391	1727.5908203125	929.5598754882812	180.2560577392578	1731.875244140625	1025.604858398438	374.760009765625	1709.29638671875	949.349365234375	342.2733459472656	958.1497802734375	1178.015258789062	281.4104919433594	955.6415405273438	809.4171142578125	188.7294311523438	991.4230346679688	895.3880004882812	219.4297485351562	1006.224853515625	1129.816528320312	283.556396484375	517.70361328125	1125.5234375	310.6695251464844	651.701171875	1163.412841796875	413.5945434570312	39.09991073608398	1114.486083984375	374.56689453125	283.1595458984375	1136.710083007812	191.4633941650391	42.59530639648438	1060.6572265625	249.5560150146484	49.09268951416016	1040.765869140625	291.2161865234375	41.02134323120117	1139.781982421875	480.3138732910156	45.51873016357422	1057.871215820312	258.6086730957031	518.4916381835938	860.2831420898438	254.5879516601562	788.7743530273438	814.6939086914062	417.5743103027344	43.98030471801758	873.054443359375	290.289306640625	392.0218811035156	857.7078857421875	186.1630096435547	44.06623840332031	916.9176025390625	250.9362182617188	45.05422210693359	946.9899291992188	269.1170043945312	43.97784042358398	852.9569702148438	473.5361328125	43.2562255859375	917.871337890625	
